<svg width="512" height="512" viewBox="0 0 512 512" xmlns="http://www.w3.org/2000/svg">
  <!-- Background rounded square -->
  <rect x="36" y="36" width="440" height="440" rx="88" ry="88" fill="#E5E5EA"/>
  
  <!-- Brain icon (complete brain outline) -->
  <g transform="translate(256, 256) scale(10, 10) translate(-12, -12)" fill="none" stroke="#3478F6" stroke-width="2.2" stroke-linecap="round" stroke-linejoin="round">
    <!-- Complete brain outline -->
    <path d="M12 3C8.5 3 6 5.5 6 8.5C6 9.2 6.2 9.8 6.5 10.3C5.1 11.1 4 12.7 4 14.5C4 15.8 4.5 17 5.3 17.9C4.5 18.7 4 19.8 4 21C4 23.2 5.8 25 8 25C10.2 25 12 23.2 12 21"/>
    
    <path d="M12 3C15.5 3 18 5.5 18 8.5C18 9.2 17.8 9.8 17.5 10.3C18.9 11.1 20 12.7 20 14.5C20 15.8 19.5 17 18.7 17.9C19.5 18.7 20 19.8 20 21C20 23.2 18.2 25 16 25C13.8 25 12 23.2 12 21"/>
    
    <!-- Top brain connection -->
    <path d="M8.5 3.5C9.5 3 10.2 3 12 3C13.8 3 14.5 3 15.5 3.5"/>
    
    <!-- Brain hemisphere division -->
    <path d="M12 5L12 21"/>
    
    <!-- Brain fold details -->
    <path d="M9 7C8.5 8 9 9.5 10 10"/>
    <path d="M15 7C15.5 8 15 9.5 14 10"/>
    <path d="M8 12C7.5 13 8 14.5 9 15"/>
    <path d="M16 12C16.5 13 16 14.5 15 15"/>
  </g>
</svg>